# xmcd CD database file
#
# Track frame offsets:
#	150
#	20377
#	36445
#	58957
#	76850
#	95487
#	113362
#	137162
#	162800
#	178707
#
# Disc length: 2576 seconds
#
# Revision: 0
# Processed by: cddbd v1.5PL3 Copyright (c) Steve Scherf et al.
# Submitted via: cdripper 1.0.7
#
DISCID=7a0a0e0a
DTITLE=Ernie Johnson - In the Mood
DYEAR=1995
DGENRE=Blues
TTITLE0=I'm in the Mood for the Blues
TTITLE1=Loves on the Other Line
TTITLE2=Cold This Winter
TTITLE3=Don't Waste My Time
TTITLE4=I Love You
TTITLE5=Bouncin' Back
TTITLE6=Share You With Someone Else
TTITLE7=Hold On
TTITLE8=Move Along
TTITLE9=It's All Over
EXTD=YEAR: 1995
EXTT0=
EXTT1=
EXTT2=
EXTT3=
EXTT4=
EXTT5=
EXTT6=
EXTT7=
EXTT8=
EXTT9=
PLAYORDER=
